<svg height="511pt" viewBox="0 -130 511.999 511" width="511pt" xmlns="http://www.w3.org/2000/svg"><path d="m508.363281 116.269531c-63.371093-73.574219-155.355469-115.769531-252.363281-115.769531s-188.992188 42.195312-252.367188 115.769531c-4.84375 5.625-4.84375 13.953125 0 19.578125 63.375 73.574219 155.359376 115.769532 252.367188 115.769532s188.992188-42.195313 252.363281-115.769532c4.847657-5.625 4.847657-13.953125 0-19.578125zm-337.554687 9.789063c0-46.976563 38.214844-85.191406 85.191406-85.191406 46.972656 0 85.191406 38.214843 85.191406 85.191406 0 46.976562-38.21875 85.191406-85.191406 85.191406s-85.191406-38.21875-85.191406-85.191406zm0 0"/><path d="m291.234375 126.058594c0 19.457031-15.777344 35.234375-35.234375 35.234375-19.460938 0-35.234375-15.777344-35.234375-35.234375 0-19.457032 15.773437-35.234375 35.234375-35.234375 19.457031 0 35.234375 15.777343 35.234375 35.234375zm0 0"/></svg>