<svg id="Layer_3" enable-background="new 0 0 64 64" height="512" viewBox="0 0 64 64" width="512" xmlns="http://www.w3.org/2000/svg"><g><path d="m29 14v2c0 .552.447 1 1 1h4c.553 0 1-.448 1-1v-2h2c.553 0 1-.448 1-1v-4c0-.552-.447-1-1-1h-2v-2c0-.552-.447-1-1-1h-4c-.553 0-1 .448-1 1v2h-2c-.553 0-1 .448-1 1v4c0 .552.447 1 1 1zm-1-4h2c.553 0 1-.448 1-1v-2h2v2c0 .552.447 1 1 1h2v2h-2c-.553 0-1 .448-1 1v2h-2v-2c0-.552-.447-1-1-1h-2z"/><path d="m62 15c.553 0 1-.448 1-1v-6c0-.552-.447-1-1-1h-20.841c-1.546-3.527-5.068-6-9.159-6s-7.612 2.473-9.159 6h-20.841c-.553 0-1 .448-1 1v6c0 .552.447 1 1 1h1v42h-1c-.553 0-1 .448-1 1v4c0 .552.447 1 1 1h60c.553 0 1-.448 1-1v-4c0-.552-.447-1-1-1h-1v-42zm-1-6v4h-19.202c.132-.646.202-1.315.202-2s-.07-1.354-.202-2zm-29-6c4.411 0 8 3.589 8 8s-3.589 8-8 8-8-3.589-8-8 3.589-8 8-8zm3 21h6v3h-6zm6-2h-6v-1.461c1.085-.342 2.083-.872 2.974-1.539h3.026zm-18 2h6v3h-6zm6-2h-6v-3h3.026c.891.667 1.89 1.197 2.974 1.539zm-26-13h19.202c-.132.646-.202 1.315-.202 2s.07 1.354.202 2h-19.202zm2 46h4v2h-4zm22 0h10v2h-10zm26 2h-6v-10h6zm-8 0h-6v-10h6zm-20 0h-6v-10h6zm-8 0h-6v-10h6zm44 4h-58v-2h58zm-6-4v-2h4v2zm4-4h-4v-7c0-.552-.447-1-1-1h-16c-.553 0-1 .448-1 1v7h-10v-7c0-.552-.447-1-1-1h-16c-.553 0-1 .448-1 1v7h-4v-38h17.841c.314.716.713 1.383 1.178 2h-2.019c-.553 0-1 .448-1 1v10c0 .552.447 1 1 1h8c.553 0 1-.448 1-1v-7.051c.329.033.662.051 1 .051s.671-.018 1-.051v7.051c0 .552.447 1 1 1h8c.553 0 1-.448 1-1v-10c0-.552-.447-1-1-1h-2.019c.465-.617.865-1.284 1.178-2h17.841z"/><path d="m18 17h-8c-.553 0-1 .448-1 1v10c0 .552.447 1 1 1h8c.553 0 1-.448 1-1v-10c0-.552-.447-1-1-1zm-1 2v3h-6v-3zm-6 8v-3h6v3z"/><path d="m46 29h8c.553 0 1-.448 1-1v-10c0-.552-.447-1-1-1h-8c-.553 0-1 .448-1 1v10c0 .552.447 1 1 1zm1-2v-3h6v3zm6-8v3h-6v-3z"/><path d="m18 31h-8c-.553 0-1 .448-1 1v10c0 .552.447 1 1 1h8c.553 0 1-.448 1-1v-10c0-.552-.447-1-1-1zm-1 2v3h-6v-3zm-6 8v-3h6v3z"/><path d="m30 31h-8c-.553 0-1 .448-1 1v10c0 .552.447 1 1 1h8c.553 0 1-.448 1-1v-10c0-.552-.447-1-1-1zm-1 2v3h-6v-3zm-6 8v-3h6v3z"/><path d="m42 31h-8c-.553 0-1 .448-1 1v10c0 .552.447 1 1 1h8c.553 0 1-.448 1-1v-10c0-.552-.447-1-1-1zm-1 2v3h-6v-3zm-6 8v-3h6v3z"/><path d="m46 43h8c.553 0 1-.448 1-1v-10c0-.552-.447-1-1-1h-8c-.553 0-1 .448-1 1v10c0 .552.447 1 1 1zm1-2v-3h6v3zm6-8v3h-6v-3z"/></g></svg>