<?xml version="1.0" encoding="iso-8859-1"?>
<!-- Generator: Adobe Illustrator 19.0.0, SVG Export Plug-In . SVG Version: 6.00 Build 0)  -->
<svg version="1.1" id="Capa_1" xmlns="http://www.w3.org/2000/svg" xmlns:xlink="http://www.w3.org/1999/xlink" x="0px" y="0px"
	 viewBox="0 0 496 496" style="enable-background:new 0 0 496 496;" xml:space="preserve">
<g>
	<g>
		<g>
			<path d="M320,384c0,39.696-32.304,72-72,72c-22.864,0-43.856-10.496-57.608-28.808l-12.8,9.608
				c16.8,22.368,42.464,35.2,70.408,35.2c48.52,0,88-39.48,88-88c0-9-1.352-17.872-4.024-26.376l-15.264,4.792
				C318.896,369.368,320,376.632,320,384z"/>
			<path d="M0,272v48h32v176h432V320h32v-48H0z M480,304H328v16h120v160H48V320h120v-16H16v-16h464V304z"/>
			<path d="M167.32,419.176l14.664-6.408C178.008,403.688,176,394.008,176,384c0-39.696,32.304-72,72-72
				c22.856,0,43.848,10.496,57.608,28.8l12.792-9.608C301.592,308.824,275.936,296,248,296c-48.52,0-88,39.48-88,88
				C160,396.224,162.464,408.064,167.32,419.176z"/>
			<path d="M224,336v24h-24v48h24v24h48v-24h24v-48h-24v-24H224z M280,376v16h-24v24h-16v-24h-24v-16h24v-24h16v24H280z"/>
			<path d="M165.312,213.984c1.2-9.56,7.96-17.456,17.224-20.104l27.704-7.912l8.752,34.992L240,206.944V256h16v-49.056
				l21.008,14.008l8.752-34.992l27.704,7.912c9.264,2.648,16.024,10.544,17.224,20.104l5.376,43.008L351.936,255l-5.376-43
				c-1.904-15.176-12.256-27.728-26.56-32.712v-65.576c0.776-0.704,1.6-1.352,2.288-2.16c4.568-5.368,6.536-12.488,5.392-19.512
				c-0.872-5.336-3.688-10.008-7.672-13.528V56c0-16.176-12.072-29.592-27.68-31.712C280.648,9.008,262.552,0,243.16,0
				C206.128,0,176,30.128,176,67.16v11.296c-3.968,3.52-6.8,8.216-7.672,13.576c-1.144,7.032,0.824,14.144,5.392,19.512
				c0.688,0.808,1.504,1.456,2.288,2.16v65.576c-14.312,4.984-24.664,17.536-26.56,32.712L144.072,255l15.872,1.984L165.312,213.984
				z M304,120v54.536l-16-4.568V168h-16v7.008l-5.008,20.032L248,182.384l-18.992,12.664L224,175.008V168h-16v1.968l-16,4.568V120
				v-1.944c0,8.544,3.328,16.584,9.376,22.632l17.936,17.936c6.04,6.048,14.08,9.376,22.632,9.376h12.12
				c8.544,0,16.584-3.328,22.632-9.376l17.936-17.936c6.04-6.04,9.368-14.08,9.368-22.632V120z M208,118.056V88h17.368
				c14.184,0,27.656-4.68,38.632-13.32c7.056,5.544,15.232,9.256,24,11.352v32.032c0,4.272-1.664,8.296-4.688,11.32l-17.936,17.936
				c-3.024,3.016-7.04,4.68-11.32,4.68h-12.12c-4.272,0-8.296-1.664-11.32-4.688l-17.936-17.936
				C209.664,126.352,208,122.336,208,118.056z M311.888,94.6c0.392,2.424-0.24,4.76-1.792,6.584
				c-1.52,1.792-3.744,2.816-6.096,2.816V88.144C307.928,88.504,311.32,91.152,311.888,94.6z M192,67.16
				C192,38.952,214.952,16,243.16,16c15.376,0,29.656,7.64,38.184,20.44L283.72,40H288c8.824,0,16,7.176,16,16v16.12
				c-0.464-0.024-0.904-0.12-1.368-0.12c-12.456,0-24.168-4.848-32.976-13.656L264,52.688l-5.656,5.656
				C249.536,67.152,237.832,72,225.368,72h-32.512c-0.288,0-0.568,0.064-0.856,0.072V67.16z M184.112,94.592
				c0.56-3.44,3.96-6.096,7.888-6.456V104c-2.352,0-4.576-1.024-6.096-2.824C184.36,99.352,183.728,97.016,184.112,94.592z"/>
		</g>
	</g>
</g>
<g>
</g>
<g>
</g>
<g>
</g>
<g>
</g>
<g>
</g>
<g>
</g>
<g>
</g>
<g>
</g>
<g>
</g>
<g>
</g>
<g>
</g>
<g>
</g>
<g>
</g>
<g>
</g>
<g>
</g>
</svg>
